<svg width="92" height="65" viewBox="0 0 92 65" fill="none" xmlns="http://www.w3.org/2000/svg">
<path d="M56.8834 5.50846L55.217 4.92315C54.3703 4.62776 53.3758 4.94503 53.013 5.63427L50.5335 10.3222L30.5428 3.31492C30.2606 1.44959 28.2984 0 25.9332 0C23.373 0 21.2832 1.69575 21.2832 3.77989C21.2832 5.86402 23.3663 7.56524 25.9332 7.56524C26.7597 7.56524 27.5391 7.3902 28.2111 7.0784L49.8749 14.6765L51.6959 15.3165C52.4217 15.5736 53.2616 15.3712 53.7118 14.8679C53.7857 14.7859 53.8462 14.6983 53.8932 14.6054L54.6391 13.1995L54.6525 13.1776L57.7637 7.29721C58.1266 6.61344 57.7301 5.80932 56.8834 5.50846ZM25.9332 5.8312C25.7719 5.8312 25.6173 5.82026 25.4628 5.79291C24.3003 5.61239 23.4201 4.78093 23.4201 3.77989C23.4201 2.65303 24.5489 1.73404 25.9332 1.73404C26.6858 1.73404 27.3577 2.00208 27.8146 2.42875C28.2044 2.78979 28.4463 3.26569 28.4463 3.78536C28.4463 4.91221 27.3174 5.8312 25.9332 5.8312Z" fill="#109E92"/>
<path d="M49.014 8.45555L38.4374 4.74678C38.0275 4.60456 37.8394 4.21617 38.0141 3.88249L39.4252 1.21852C39.5999 0.884842 40.077 0.731678 40.4869 0.873902L51.0634 4.58268C51.4733 4.7249 51.6615 5.11328 51.4868 5.44696L50.0757 8.11093C49.901 8.44462 49.4239 8.59778 49.014 8.45555Z" fill="#A0A4C0" fill-opacity="0.24"/>
<path d="M60.6228 23.1914L65.1317 14.565C65.3064 14.2313 65.7835 14.0781 66.1866 14.2204L69.4591 15.3527C69.869 15.4949 70.0571 15.8833 69.8824 16.2115L65.3736 24.838C65.1989 25.1716 64.7218 25.3248 64.3186 25.1826L61.0462 24.0503C60.643 23.908 60.4481 23.5197 60.6228 23.1914Z" fill="#109E92"/>
<path d="M42.5291 32.6844L53.146 36.3166C53.5559 36.4588 53.7508 36.8417 53.5761 37.1754L52.1985 39.8448C52.0238 40.1785 51.5535 40.3371 51.1436 40.1949L40.5267 36.5627C40.1168 36.4205 39.9219 36.0376 40.0966 35.7039L41.4741 33.0345C41.6421 32.7008 42.1192 32.5421 42.5291 32.6844Z" fill="#A0A4C0" fill-opacity="0.24"/>
<path d="M30.8059 18.042L26.3912 26.7013C26.2232 27.035 25.7461 27.1936 25.3362 27.0569L22.0503 25.9464C21.6405 25.8097 21.4456 25.4213 21.6136 25.0876L26.0283 16.4338C26.1963 16.1001 26.6734 15.9415 27.0833 16.0782L30.3692 17.1887C30.7858 17.3254 30.9806 17.7083 30.8059 18.042Z" fill="#109E92"/>
<path d="M66.08 0.407074C63.5199 0.407074 61.4301 2.10283 61.4301 4.18696C61.4301 4.94732 61.7056 5.65297 62.1827 6.24375L52.9702 23.8741L52.1974 25.3565C52.0966 25.5534 52.0496 25.7613 52.063 25.9637C52.063 25.9746 52.063 25.9911 52.0698 26.002C52.0698 26.0184 52.0698 26.0294 52.0765 26.0458V26.0512C52.0832 26.0731 52.0832 26.1005 52.0899 26.1223C52.0966 26.1442 52.0966 26.1661 52.1034 26.188C52.1034 26.1989 52.1101 26.2099 52.1168 26.2208C52.1235 26.2427 52.1302 26.2591 52.137 26.2755C52.1437 26.2974 52.1504 26.3193 52.1638 26.3411C52.1638 26.3521 52.1706 26.3576 52.1773 26.3685C52.184 26.3904 52.1974 26.4123 52.2109 26.4287C52.2243 26.4506 52.231 26.467 52.2445 26.4888C52.2512 26.4998 52.2579 26.5162 52.2713 26.5271C52.2713 26.5326 52.2781 26.5381 52.2781 26.5435C52.2915 26.56 52.2982 26.5764 52.3117 26.5873C52.3184 26.6037 52.3318 26.6147 52.3453 26.6256C52.3587 26.642 52.3721 26.6639 52.3923 26.6803C52.4057 26.6912 52.4125 26.7077 52.4259 26.7186C52.4461 26.735 52.4595 26.7514 52.4797 26.7733C52.4931 26.7842 52.4998 26.7952 52.5133 26.8061C52.52 26.8116 52.52 26.8116 52.5267 26.8171C52.5334 26.8225 52.5334 26.8225 52.5401 26.828C52.5468 26.8335 52.5468 26.8335 52.5468 26.8335C52.5939 26.8718 52.6409 26.91 52.6947 26.9429C52.7216 26.9593 52.7484 26.9757 52.7753 26.9921C52.8761 27.0523 52.9836 27.1015 53.0978 27.1398L54.7777 27.7251L54.8584 27.7525L62.0953 30.2578C62.942 30.5532 63.9365 30.225 64.2926 29.5357L65.0049 28.1737C65.3678 27.4844 64.9646 26.6803 64.1179 26.3849L58.3458 24.3883L66.9603 7.90668C69.1173 7.57847 70.7501 6.03588 70.7501 4.18696C70.73 2.10283 68.6469 0.407074 66.08 0.407074ZM67.9145 5.58732C67.4575 5.98665 66.8057 6.23281 66.08 6.23281C64.6958 6.23281 63.5669 5.31382 63.5669 4.18696C63.5669 4.14867 63.5669 4.10491 63.5736 4.06662C63.6476 2.99446 64.7428 2.14112 66.0868 2.14112C67.471 2.14112 68.5999 3.06011 68.5999 4.18696C68.5999 4.72851 68.3378 5.22082 67.9145 5.58732Z" fill="#A0A4C0" fill-opacity="0.24"/>
<path d="M38.7275 14.2168C38.5998 14.1292 38.4587 14.0581 38.3041 14.0089L36.557 13.4181L36.5369 13.4127L29.273 10.962C28.4197 10.6721 27.4319 11.0058 27.0825 11.7005L26.3836 13.068C26.0275 13.7627 26.4374 14.5669 27.2908 14.8513L33.083 16.8096L24.5895 33.4718C22.661 33.9313 21.2499 35.3863 21.2499 37.104C21.2499 39.1881 23.333 40.8893 25.8998 40.8893C28.46 40.8893 30.5498 39.1936 30.5498 37.104C30.5498 36.2178 30.1735 35.4027 29.5418 34.7573L38.4452 17.2801C38.4721 17.2418 38.4923 17.2035 38.5124 17.1652L39.2113 15.7976C39.4935 15.2288 39.2785 14.5887 38.7275 14.2168ZM25.8998 39.1498C24.5156 39.1498 23.3867 38.2308 23.3867 37.104C23.3867 36.6882 23.5413 36.3053 23.7966 35.9826C24.2468 35.4246 25.0196 35.0581 25.8998 35.0581C27.1967 35.0581 28.2651 35.8622 28.3995 36.8906C28.4062 36.9617 28.4129 37.0328 28.4129 37.104C28.4129 38.2308 27.2841 39.1498 25.8998 39.1498Z" fill="#A0A4C0" fill-opacity="0.24"/>
<path d="M65.7961 33.4301C64.9562 33.4301 64.1633 33.616 63.4779 33.9333L41.6393 26.4665L39.8183 25.8429C39.1665 25.6241 38.4341 25.7609 37.9704 26.1493C37.8293 26.2696 37.7084 26.4064 37.6277 26.5705L36.902 27.9763L33.8446 33.906C33.4885 34.6007 33.8917 35.4048 34.7383 35.6947L36.4115 36.2691C37.2649 36.559 38.2526 36.2308 38.6088 35.5415L41.0413 30.8317L61.1932 37.7241C61.4956 39.5731 63.4443 41.0008 65.7961 41.0008C68.3563 41.0008 70.446 39.305 70.446 37.2154C70.446 35.1313 68.363 33.4301 65.7961 33.4301ZM65.7961 39.2613C65.0368 39.2613 64.3581 38.9878 63.9012 38.5556C63.5182 38.1946 63.283 37.7241 63.283 37.2154C63.283 36.0886 64.4119 35.1696 65.7961 35.1696C65.9238 35.1696 66.0447 35.175 66.1724 35.1915C67.3819 35.3391 68.3159 36.1925 68.3159 37.2154C68.3159 38.3423 67.1871 39.2613 65.7961 39.2613Z" fill="#109E92"/>
<path d="M5.12896 47.6663C5.18818 47.424 5.28977 47.2546 5.43374 47.1581C5.57771 47.0617 5.75883 47.0135 5.97711 47.0135C6.19539 47.0135 6.36897 47.0543 6.49785 47.1359C6.62672 47.215 6.72483 47.3114 6.79217 47.4252C6.86068 47.5365 6.9135 47.6972 6.95066 47.9074C6.98897 48.1819 7.00813 48.5999 7.00813 49.1612V62.5414C7.00813 62.9123 7.00233 63.1905 6.99072 63.376C6.9791 63.5615 6.94311 63.7742 6.88274 64.014C6.77708 64.4468 6.48275 64.6632 5.99975 64.6632C5.47147 64.6632 5.16205 64.3664 5.07149 63.7729C5.02621 63.4984 5.00357 63.0805 5.00357 62.5191V57.6226H2.00456V62.5414C2.00456 62.9123 1.99876 63.1905 1.98715 63.376C1.97554 63.5615 1.93954 63.7742 1.87917 64.014C1.77351 64.4468 1.47918 64.6632 0.996185 64.6632C0.467905 64.6632 0.158484 64.3664 0.0679218 63.7729C0.0226406 63.4984 0 63.0805 0 62.5191V49.1353C0 48.7668 0.0058053 48.4898 0.0174159 48.3044C0.0278654 48.1214 0.0632775 47.9087 0.123652 47.6663C0.23047 47.2311 0.524797 47.0135 1.00664 47.0135C1.53608 47.0135 1.84956 47.3114 1.94709 47.9074C1.9854 48.1819 2.00456 48.5999 2.00456 49.1612V54.08H5.00357V49.1353C5.00357 48.7668 5.00937 48.4898 5.02098 48.3044C5.03259 48.1214 5.06859 47.9087 5.12896 47.6663ZM7.91288 62.5673V54.1023C7.91288 53.7338 7.91869 53.4568 7.9303 53.2714C7.94075 53.0859 7.97268 52.8732 8.02609 52.6333C8.13174 52.2154 8.42607 52.0064 8.90907 52.0064C9.27132 52.0064 9.52791 52.1424 9.67885 52.4145C9.80773 52.6395 9.87565 52.9857 9.88261 53.4531C9.88958 53.6139 9.89306 53.8463 9.89306 54.1505V62.5896C9.89306 62.9605 9.88784 63.2388 9.87739 63.4242C9.86578 63.6072 9.82979 63.8199 9.76941 64.0623C9.67188 64.4802 9.38162 64.6892 8.89862 64.6892C8.42259 64.6892 8.13174 64.4715 8.02609 64.0363C7.97268 63.7964 7.94075 63.5874 7.9303 63.4094C7.91869 63.2338 7.91288 62.9531 7.91288 62.5673ZM9.77464 49.6324C9.71774 49.8648 9.61789 50.0293 9.47508 50.1257C9.33227 50.2222 9.14186 50.2704 8.90384 50.2704C8.66583 50.2704 8.47483 50.2222 8.33086 50.1257C8.18805 50.0293 8.0882 49.8599 8.03131 49.6175C7.97442 49.3776 7.94075 49.165 7.9303 48.9795C7.91869 48.7965 7.91288 48.5195 7.91288 48.1486C7.91288 47.7776 7.91869 47.5006 7.9303 47.3176C7.94075 47.1322 7.97268 46.9269 8.02609 46.7019C8.13174 46.2666 8.42607 46.049 8.90907 46.049C9.3851 46.049 9.67188 46.2666 9.76941 46.7019C9.82979 46.9417 9.86578 47.1544 9.87739 47.3399C9.88784 47.5254 9.89306 47.8036 9.89306 48.1745C9.89306 48.543 9.88784 48.82 9.87739 49.0054C9.86578 49.1885 9.83153 49.3974 9.77464 49.6324ZM11.3429 46.9912H17.637C17.8785 46.9912 18.0556 47.0518 18.1682 47.173C18.282 47.2941 18.358 47.4821 18.3963 47.7368C18.4335 47.994 18.4521 48.3316 18.4521 48.7495C18.4521 49.1699 18.4335 49.5038 18.3963 49.7511C18.358 50.0008 18.2936 50.1739 18.203 50.2704C18.0672 50.4138 17.875 50.4855 17.6266 50.4855H15.4635V62.6156C15.4635 62.9865 15.4577 63.2598 15.4461 63.4354C15.4357 63.6109 15.402 63.8162 15.3451 64.0511C15.2882 64.2836 15.1883 64.448 15.0455 64.5445C14.9016 64.6409 14.7129 64.6892 14.4795 64.6892C14.245 64.6892 14.0581 64.6409 13.9187 64.5445C13.7782 64.448 13.6801 64.2836 13.6244 64.0511C13.5675 63.8162 13.5333 63.6072 13.5217 63.4242C13.5112 63.2388 13.506 62.9605 13.506 62.5896V50.4855H11.3325C11.091 50.4855 10.9133 50.4262 10.7996 50.3075C10.6869 50.1863 10.6115 49.9971 10.5732 49.7399C10.536 49.4827 10.5174 49.1452 10.5174 48.7272C10.5174 48.3093 10.536 47.9754 10.5732 47.7257C10.6115 47.4784 10.6759 47.3053 10.7665 47.2063C10.9023 47.0629 11.0945 46.9912 11.3429 46.9912ZM23.467 56.8176C23.467 57.8044 23.352 58.5351 23.1221 59.0099C22.8922 59.4848 22.6374 59.7222 22.3576 59.7222H19.6755C19.6755 60.1722 19.7998 60.5494 20.0482 60.8536C20.2979 61.1602 20.5469 61.3135 20.7954 61.3135C21.2331 61.3135 21.5768 61.2171 21.8264 61.0242L21.95 60.9277C22.1312 60.7497 22.2821 60.6607 22.4029 60.6607C22.6444 60.6607 22.8522 61.023 23.0263 61.7475C23.1239 62.1828 23.1726 62.5525 23.1726 62.8567C23.1726 64.2861 22.3692 65.0008 20.7623 65.0008C20.2038 65.0008 19.7075 64.7967 19.2732 64.3887C18.839 63.9782 18.5011 63.4354 18.2596 62.7602C17.7848 61.4594 17.5473 60.0053 17.5473 58.3979C17.5473 56.37 17.8544 54.7502 18.4686 53.5384C19.084 52.3242 19.852 51.7171 20.7727 51.7171C21.8223 51.7171 22.5921 52.5047 23.0821 54.08C23.3387 54.9159 23.467 55.8284 23.467 56.8176ZM19.6512 57.5299H21.0793C21.366 57.5299 21.5094 57.2714 21.5094 56.7546C21.5094 56.3861 21.4432 56.0893 21.3109 55.8643C21.1785 55.6393 20.9898 55.5267 20.7449 55.5267C20.4999 55.5267 20.2561 55.7394 20.0134 56.1648C19.7719 56.5926 19.6512 57.0476 19.6512 57.5299ZM26.0715 58.3348C26.0715 59.0174 26.1772 59.5478 26.3885 59.9262C26.5986 60.3046 26.8227 60.4937 27.0607 60.4937C27.2987 60.4937 27.5217 60.3454 27.7295 60.0486C27.9373 59.7518 28.1051 59.6035 28.2328 59.6035C28.4592 59.6035 28.7344 60.0288 29.0583 60.8795C29.2325 61.3469 29.3195 61.7649 29.3195 62.1333C29.3195 62.7442 29.1123 63.3154 28.6978 63.8471C28.2671 64.4901 27.7382 64.8116 27.1112 64.8116C26.4099 64.8116 25.7348 64.2725 25.0858 63.1942C24.7758 62.6799 24.5226 61.9924 24.3264 61.1318C24.1314 60.2712 24.0338 59.3228 24.0338 58.2866C24.0338 57.2504 24.1314 56.3107 24.3264 55.4674C24.5226 54.6216 24.7758 53.9415 25.0858 53.4272C25.7127 52.3662 26.3809 51.8358 27.0903 51.8358C27.3759 51.8358 27.6546 51.9211 27.9263 52.0917C28.198 52.2599 28.3983 52.4244 28.5271 52.5851L28.7083 52.8262C28.8441 53.0191 28.9498 53.1712 29.0252 53.2825C29.2214 53.604 29.3195 53.97 29.3195 54.3805C29.3195 54.791 29.2406 55.2535 29.0827 55.7678C28.811 56.6507 28.5504 57.0921 28.3007 57.0921C28.1568 57.0921 27.953 56.9153 27.6894 56.5617C27.5536 56.2896 27.3591 56.1536 27.106 56.1536C26.8529 56.1536 26.6172 56.3465 26.3989 56.7323C26.1806 57.1181 26.0715 57.6523 26.0715 58.3348ZM33.293 52.0287C34.0477 52.0287 34.6758 52.6395 35.1774 53.8612C35.6801 55.0828 35.9315 56.579 35.9315 58.3497V62.5896C35.9315 62.9605 35.9257 63.2388 35.9141 63.4242C35.9024 63.6072 35.8665 63.8199 35.8061 64.0623C35.7074 64.4802 35.4171 64.6892 34.9353 64.6892C34.4743 64.6892 34.1876 64.4802 34.0749 64.0623C34.0146 63.8199 33.9786 63.6023 33.967 63.4094C33.9554 63.2165 33.9496 62.9272 33.9496 62.5414V58.3237C33.9496 57.6659 33.863 57.1515 33.6901 56.7805C33.5159 56.4096 33.2947 56.2241 33.0265 56.2241C32.7595 56.2241 32.5238 56.3972 32.3194 56.7434C32.1162 57.0897 31.999 57.4792 31.9676 57.9119V62.5896C31.9676 62.9605 31.9624 63.2388 31.952 63.4242C31.9403 63.6072 31.9043 63.8199 31.844 64.0623C31.7464 64.4802 31.4562 64.6892 30.9732 64.6892C30.4972 64.6892 30.2063 64.4715 30.1006 64.0363C30.0472 63.7964 30.0153 63.5874 30.0049 63.4094C29.9933 63.2338 29.9874 62.9531 29.9874 62.5673V48.1486C29.9874 47.7776 29.9933 47.5006 30.0049 47.3176C30.0153 47.1322 30.0472 46.9269 30.1006 46.7019C30.2063 46.2666 30.5006 46.049 30.9836 46.049C31.4597 46.049 31.7464 46.2666 31.844 46.7019C31.9043 46.9417 31.9403 47.1544 31.952 47.3399C31.9624 47.5254 31.9676 47.8036 31.9676 48.1745V53.5013C32.3461 52.5196 32.7879 52.0287 33.293 52.0287ZM40.1766 61.3358H37.4823C37.0597 61.3358 36.8066 61.0625 36.723 60.516C36.6859 60.2267 36.6673 59.8569 36.6673 59.4069C36.6673 58.9592 36.6899 58.5982 36.7352 58.3237C36.7805 58.0492 36.8519 57.8563 36.9494 57.745C37.0853 57.6016 37.2664 57.5299 37.4928 57.5299H40.187C40.6097 57.5299 40.8587 57.7945 40.9342 58.3237C40.9794 58.613 41.0021 58.9827 41.0021 59.4328C41.0021 59.8829 40.9812 60.2489 40.9394 60.5308C40.8976 60.8103 40.832 61.0069 40.7426 61.1206C40.6067 61.2641 40.4181 61.3358 40.1766 61.3358ZM41.9643 62.4709L41.8616 62.2038C41.6665 61.6894 41.569 61.2282 41.569 60.8202C41.569 60.4097 41.7309 59.8668 42.0549 59.1917C42.243 58.8059 42.4432 58.613 42.6557 58.613C42.867 58.613 43.1614 59.0149 43.5387 59.8186C43.6444 60.0906 43.7953 60.3515 43.9915 60.6013C44.1877 60.8511 44.3689 60.976 44.5349 60.976C45.2362 60.976 45.5868 60.3651 45.5868 59.1435C45.5868 58.7725 45.4904 58.4634 45.2977 58.2161C45.1061 57.9663 44.8664 57.7858 44.5784 57.6745C44.2928 57.5608 43.984 57.379 43.6519 57.1292C43.3187 56.8795 43.0093 56.5864 42.7236 56.2501C42.4369 55.9113 42.1971 55.3771 42.0044 54.6476C41.8116 53.9156 41.7153 53.0352 41.7153 52.0064C41.7153 50.5919 41.9626 49.3579 42.4572 48.3044C42.9518 47.2509 43.6252 46.7241 44.4774 46.7241C44.9302 46.7241 45.3436 46.849 45.7174 47.0988C46.0913 47.3485 46.3496 47.602 46.4924 47.8592L46.7763 48.3192C47.0097 48.7841 47.1264 49.1773 47.1264 49.4988C47.1264 49.8203 47.0358 50.2617 46.8547 50.8231C46.5981 51.6268 46.3339 52.0287 46.0623 52.0287C45.9044 52.0287 45.7081 51.8679 45.4736 51.5464C45.4515 51.5168 45.408 51.4364 45.343 51.3053C45.2791 51.1792 45.2211 51.0753 45.1688 50.9937C45.0098 50.7835 44.8077 50.6784 44.5628 50.6784C44.3178 50.6784 44.114 50.8033 43.9515 51.0531C43.7889 51.3029 43.7076 51.6491 43.7076 52.0917C43.7076 52.5319 43.804 52.8893 43.9967 53.1638C44.1895 53.4383 44.4292 53.6238 44.716 53.7202C45.0016 53.8142 45.3145 53.9626 45.6547 54.1653C45.9949 54.3657 46.3078 54.6105 46.5934 54.8998C46.8802 55.1892 47.12 55.6912 47.3127 56.4059C47.5055 57.1206 47.6018 58.001 47.6018 59.047C47.6018 60.0906 47.5037 61.0106 47.3075 61.8069C47.1113 62.6032 46.8547 63.219 46.5377 63.6542C45.9258 64.5049 45.2727 64.9303 44.5784 64.9303C44.2243 64.9303 43.8888 64.8375 43.5718 64.6521C43.2548 64.4691 42.9982 64.2403 42.802 63.9658C42.4026 63.4514 42.1234 62.9531 41.9643 62.4709ZM48.1687 58.3497C48.1687 56.4207 48.4851 54.8293 49.1179 53.5755C49.7518 52.3193 50.4769 51.6911 51.2931 51.6911C52.1082 51.6911 52.8286 52.3143 53.4544 53.5607C54.0814 54.8071 54.3949 56.3948 54.3949 58.3237C54.3949 59.6566 54.2323 60.8424 53.9072 61.8811C53.5833 62.9173 53.1891 63.6802 52.7247 64.1698C52.2603 64.6595 51.779 64.9043 51.2809 64.9043C50.7828 64.9043 50.2998 64.6434 49.8319 64.1216C49.364 63.5998 48.9698 62.8282 48.6494 61.8069C48.3289 60.788 48.1687 59.6356 48.1687 58.3497ZM50.5338 60.0709C50.7753 60.4641 51.0208 60.6607 51.2705 60.6607C51.5189 60.6607 51.768 60.4603 52.0176 60.0597C52.2661 59.6566 52.3903 59.0619 52.3903 58.2755C52.3903 57.4866 52.2736 56.8992 52.0402 56.5135C51.8057 56.1277 51.5526 55.9348 51.2809 55.9348C51.0092 55.9348 50.7567 56.1363 50.5233 56.5394C50.2888 56.94 50.1715 57.5311 50.1715 58.3126C50.1715 59.0915 50.2923 59.6776 50.5338 60.0709ZM55.1298 59.6035V48.1226C55.1298 47.7541 55.1356 47.4771 55.1472 47.2917C55.1577 47.1062 55.1896 46.8935 55.243 46.6536C55.3487 46.2184 55.643 46.0008 56.126 46.0008C56.5869 46.0008 56.8737 46.2184 56.9863 46.6536C57.0467 46.8935 57.0827 47.1099 57.0943 47.3028C57.1048 47.4957 57.11 47.7776 57.11 48.1486V59.3104C57.11 59.8891 57.1332 60.2551 57.1797 60.4084C57.2249 60.5617 57.3248 60.6384 57.4792 60.6384C57.6336 60.6384 57.7375 60.6508 57.7909 60.6755C57.8432 60.7002 57.9071 60.7682 57.9825 60.8795C58.1335 61.0873 58.2089 61.6573 58.2089 62.5896C58.2089 63.6035 58.1335 64.223 57.9825 64.448C57.7863 64.7374 57.3184 64.7856 56.5788 64.5927C55.9983 64.432 55.6209 64.0215 55.4468 63.3612C55.2355 62.5748 55.1298 61.3222 55.1298 59.6035ZM61.3673 64.6409C60.6056 64.6409 59.9734 64.0264 59.4707 62.7973C58.9691 61.5658 58.7183 60.0659 58.7183 58.2977V54.08C58.7183 53.6942 58.7241 53.4123 58.7358 53.2343C58.7462 53.0587 58.7781 52.851 58.8315 52.6111C58.9372 52.1758 59.2315 51.9582 59.7145 51.9582C60.2428 51.9582 60.5522 52.2636 60.6428 52.8744C60.6881 53.1316 60.7107 53.5409 60.7107 54.1023V58.3237C60.7107 58.9815 60.7995 59.4959 60.9772 59.8668C61.1537 60.2353 61.3911 60.4195 61.6895 60.4195C61.9879 60.4195 62.2294 60.2267 62.414 59.8409C62.5986 59.4551 62.6909 58.9494 62.6909 58.3237V54.0541C62.6909 53.6856 62.6967 53.4086 62.7083 53.2231C62.7199 53.0377 62.7559 52.825 62.8163 52.5851C62.915 52.1672 63.2058 51.9582 63.6888 51.9582C64.1637 51.9582 64.454 52.1758 64.5596 52.6111C64.6119 52.851 64.6438 53.0636 64.6554 53.2491C64.667 53.4321 64.6728 53.7091 64.6728 54.08V62.6156C64.6728 62.9692 64.667 63.2388 64.6554 63.4242C64.6438 63.6072 64.6084 63.8113 64.5492 64.0363C64.4354 64.4542 64.1445 64.6632 63.6766 64.6632C63.2169 64.6632 62.9341 64.4703 62.8285 64.0845C62.753 63.8125 62.7153 63.4836 62.7153 63.0978C62.6851 63.2116 62.6172 63.3723 62.5115 63.58C62.4047 63.7878 62.3025 63.9646 62.205 64.1105C61.9484 64.4641 61.6692 64.6409 61.3673 64.6409ZM69.0424 56.2501L68.3075 56.1536V59.481C68.3075 59.9138 68.3394 60.2267 68.4033 60.4195C68.4671 60.6149 68.5879 60.7126 68.7655 60.7126C68.9432 60.7126 69.079 60.7237 69.1731 60.746C69.2671 60.7707 69.367 60.8474 69.4726 60.976C69.6468 61.1837 69.7339 61.7216 69.7339 62.5896C69.7339 63.6035 69.6282 64.223 69.4169 64.448C69.3031 64.5593 69.2027 64.6273 69.1156 64.6521C69.0285 64.6768 68.902 64.6892 68.7359 64.6892C67.9511 64.6892 67.3549 64.3108 66.9473 63.5541C66.541 62.7998 66.3378 61.5225 66.3378 59.7222V56.1536C66.1938 56.2006 66.0388 56.2241 65.8728 56.2241C65.7067 56.2241 65.5691 56.0881 65.46 55.8161C65.3509 55.5416 65.2963 55.0754 65.2963 54.4176C65.2963 53.7573 65.3149 53.2788 65.352 52.982C65.3904 52.6853 65.4432 52.4726 65.5105 52.344C65.6313 52.1338 65.7822 52.0287 65.9633 52.0287L66.3378 52.1251V49.6435C66.3378 49.275 66.343 49.0017 66.3534 48.8237C66.365 48.6481 66.401 48.4552 66.4614 48.245C66.5601 47.8444 66.851 47.6441 67.334 47.6441C67.846 47.6441 68.1513 47.9408 68.25 48.5343C68.2883 48.7915 68.3075 49.2021 68.3075 49.7659V52.1251C68.6396 52.0608 68.8904 52.0287 69.0599 52.0287C69.2294 52.0287 69.3577 52.041 69.4448 52.0658C69.5318 52.0905 69.6317 52.1672 69.7443 52.2958C69.9405 52.506 70.0386 53.1242 70.0386 54.1505C70.0386 55.1644 69.937 55.7839 69.7339 56.009C69.6201 56.1202 69.5196 56.1883 69.4326 56.213C69.3455 56.2377 69.2154 56.2501 69.0424 56.2501ZM70.6612 62.5673V54.1023C70.6612 53.7338 70.6671 53.4568 70.6787 53.2714C70.6891 53.0859 70.721 52.8732 70.7745 52.6333C70.8801 52.2154 71.1744 52.0064 71.6574 52.0064C72.0197 52.0064 72.2763 52.1424 72.4272 52.4145C72.5561 52.6395 72.624 52.9857 72.631 53.4531C72.6379 53.6139 72.6414 53.8463 72.6414 54.1505V62.5896C72.6414 62.9605 72.6362 63.2388 72.6257 63.4242C72.6141 63.6072 72.5782 63.8199 72.5178 64.0623C72.4202 64.4802 72.13 64.6892 71.647 64.6892C71.1709 64.6892 70.8801 64.4715 70.7745 64.0363C70.721 63.7964 70.6891 63.5874 70.6787 63.4094C70.6671 63.2338 70.6612 62.9531 70.6612 62.5673ZM72.523 49.6324C72.4661 49.8648 72.3663 50.0293 72.2234 50.1257C72.0806 50.2222 71.8902 50.2704 71.6522 50.2704C71.4142 50.2704 71.2232 50.2222 71.0792 50.1257C70.9364 50.0293 70.8366 49.8599 70.7797 49.6175C70.7228 49.3776 70.6891 49.165 70.6787 48.9795C70.6671 48.7965 70.6612 48.5195 70.6612 48.1486C70.6612 47.7776 70.6671 47.5006 70.6787 47.3176C70.6891 47.1322 70.721 46.9269 70.7745 46.7019C70.8801 46.2666 71.1744 46.049 71.6574 46.049C72.1335 46.049 72.4202 46.2666 72.5178 46.7019C72.5782 46.9417 72.6141 47.1544 72.6257 47.3399C72.6362 47.5254 72.6414 47.8036 72.6414 48.1745C72.6414 48.543 72.6362 48.82 72.6257 49.0054C72.6141 49.1885 72.5799 49.3974 72.523 49.6324ZM73.379 58.3497C73.379 56.4207 73.6954 54.8293 74.3282 53.5755C74.9621 52.3193 75.6872 51.6911 76.5034 51.6911C77.3184 51.6911 78.0389 52.3143 78.6647 53.5607C79.2917 54.8071 79.6051 56.3948 79.6051 58.3237C79.6051 59.6566 79.4426 60.8424 79.1175 61.8811C78.7936 62.9173 78.3994 63.6802 77.935 64.1698C77.4705 64.6595 76.9893 64.9043 76.4912 64.9043C75.9931 64.9043 75.5101 64.6434 75.0422 64.1216C74.5743 63.5998 74.1801 62.8282 73.8597 61.8069C73.5392 60.788 73.379 59.6356 73.379 58.3497ZM75.7441 60.0709C75.9856 60.4641 76.2311 60.6607 76.4807 60.6607C76.7292 60.6607 76.9783 60.4603 77.2279 60.0597C77.4764 59.6566 77.6006 59.0619 77.6006 58.2755C77.6006 57.4866 77.4839 56.8992 77.2505 56.5135C77.016 56.1277 76.7629 55.9348 76.4912 55.9348C76.2195 55.9348 75.967 56.1363 75.7336 56.5394C75.4991 56.94 75.3818 57.5311 75.3818 58.3126C75.3818 59.0915 75.5026 59.6776 75.7441 60.0709ZM83.6561 51.9805C84.4108 51.9805 85.0395 52.5962 85.5422 53.8278C86.0438 55.0569 86.2946 56.5555 86.2946 58.3237V62.5673C86.2946 62.9358 86.2888 63.2128 86.2772 63.3983C86.2655 63.5837 86.2336 63.789 86.1814 64.014C86.0757 64.4468 85.7814 64.6632 85.2984 64.6632C84.7631 64.6632 84.4537 64.3664 84.3701 63.7729C84.3248 63.4984 84.3022 63.0879 84.3022 62.5414V58.2977C84.3022 57.6399 84.2134 57.1255 84.0357 56.7546C83.8593 56.3861 83.6218 56.2019 83.3234 56.2019C83.025 56.2019 82.7835 56.3947 82.5989 56.7805C82.4132 57.1663 82.3203 57.6721 82.3203 58.2977V62.5673C82.3203 62.9358 82.3151 63.2128 82.3046 63.3983C82.293 63.5837 82.257 63.789 82.1966 64.014C82.0991 64.4468 81.8088 64.6632 81.3258 64.6632C80.8498 64.6632 80.559 64.4468 80.4533 64.014C80.3999 63.7742 80.368 63.5615 80.3575 63.376C80.3459 63.1905 80.3401 62.9123 80.3401 62.5414V54.0058C80.3401 53.6522 80.3459 53.3839 80.3575 53.2009C80.368 53.0154 80.4034 52.8101 80.4637 52.5851C80.5706 52.182 80.8614 51.9805 81.3363 51.9805C81.7972 51.9805 82.0805 52.1659 82.1862 52.5369C82.2616 52.8089 82.2994 53.1378 82.2994 53.5236C82.3296 53.4123 82.3975 53.2528 82.5031 53.0451C82.6088 52.8349 82.7104 52.6655 82.8079 52.5369C83.0645 52.1659 83.3472 51.9805 83.6561 51.9805ZM87.2455 63.5541C87.1027 63.3636 87.0313 63.0582 87.0313 62.6378C87.0313 62.2224 87.1741 61.588 87.4597 60.7349C87.5433 60.4603 87.6774 60.3231 87.862 60.3231C88.0478 60.3231 88.2985 60.5209 88.6144 60.9166C88.9325 61.3098 89.2198 61.5064 89.4764 61.5064C89.9362 61.5064 90.1661 61.3135 90.1661 60.9277C90.1661 60.6211 89.9136 60.3961 89.4085 60.2526C88.9325 60.1092 88.4605 59.7308 87.9926 59.1175C87.7743 58.8282 87.5932 58.3744 87.4492 57.7561C87.3053 57.1379 87.2333 56.4022 87.2333 55.549C87.2333 53.0092 88.0524 51.7393 89.6907 51.7393C90.2271 51.7393 90.778 52.0126 91.3434 52.5591C91.6082 52.8163 91.7405 53.1378 91.7405 53.5236C91.7405 53.9094 91.6569 54.3842 91.4897 54.948C91.3237 55.5119 91.1542 55.7938 90.9812 55.7938C90.8906 55.7938 90.7228 55.6726 90.4779 55.4303C90.2317 55.1879 89.9658 55.0668 89.6802 55.0668C89.2344 55.0668 89.0114 55.2436 89.0114 55.5972C89.0114 56.0819 89.268 56.396 89.7812 56.5394C90.2793 56.6507 90.7623 56.9561 91.2302 57.4557C91.4497 57.6807 91.6325 58.0702 91.7788 58.6242C91.9263 59.1781 92 59.8742 92 60.7126C92 61.546 91.9263 62.257 91.7788 62.8456C91.6325 63.4316 91.427 63.8694 91.1623 64.1587C90.6793 64.6558 90.0738 64.9043 89.3458 64.9043C88.6167 64.9043 87.9166 64.4542 87.2455 63.5541Z" fill="#A0A4C0" fill-opacity="0.24"/>
</svg>
